<mxfile host="app.diagrams.net" agent="Mozilla/5.0 (Windows NT 10.0; Win64; x64) AppleWebKit/537.36 (KHTML, like Gecko) Chrome/134.0.0.0 Safari/537.36 OPR/119.0.0.0" version="27.1.6">
  <diagram name="Pagina-1" id="wJOhGbkmjoxHLYDANczE">
    <mxGraphModel dx="2021" dy="1103" grid="1" gridSize="10" guides="1" tooltips="1" connect="1" arrows="1" fold="1" page="1" pageScale="1" pageWidth="827" pageHeight="1169" math="0" shadow="0">
      <root>
        <mxCell id="0" />
        <mxCell id="1" parent="0" />
        <mxCell id="E-5v2TKGbrNrk4kBcRAY-96" style="edgeStyle=orthogonalEdgeStyle;rounded=0;orthogonalLoop=1;jettySize=auto;html=1;entryX=0.5;entryY=0;entryDx=0;entryDy=0;endArrow=open;endFill=0;dashed=1;" edge="1" parent="1" source="E-5v2TKGbrNrk4kBcRAY-97" target="E-5v2TKGbrNrk4kBcRAY-118">
          <mxGeometry relative="1" as="geometry" />
        </mxCell>
        <mxCell id="E-5v2TKGbrNrk4kBcRAY-97" value="Utente" style="swimlane;fontStyle=1;align=center;verticalAlign=top;childLayout=stackLayout;horizontal=1;startSize=26;horizontalStack=0;resizeParent=1;resizeParentMax=0;resizeLast=0;collapsible=1;marginBottom=0;whiteSpace=wrap;html=1;fillColor=#7EA6E0;swimlaneFillColor=#E6E6E6;fontColor=#FFFFFF;strokeColor=none;" vertex="1" parent="1">
          <mxGeometry x="968" y="650" width="160" height="60" as="geometry" />
        </mxCell>
        <mxCell id="E-5v2TKGbrNrk4kBcRAY-98" style="line;strokeWidth=1;fillColor=none;align=left;verticalAlign=middle;spacingTop=-1;spacingLeft=3;spacingRight=3;rotatable=0;labelPosition=right;points=[];portConstraint=eastwest;strokeColor=none;dashed=1;" vertex="1" parent="E-5v2TKGbrNrk4kBcRAY-97">
          <mxGeometry y="26" width="160" height="14" as="geometry" />
        </mxCell>
        <mxCell id="E-5v2TKGbrNrk4kBcRAY-99" value="" style="line;strokeWidth=1;fillColor=none;align=left;verticalAlign=middle;spacingTop=-1;spacingLeft=3;spacingRight=3;rotatable=0;labelPosition=right;points=[];portConstraint=eastwest;strokeColor=#7EA6E0;dashed=1;" vertex="1" parent="E-5v2TKGbrNrk4kBcRAY-97">
          <mxGeometry y="40" width="160" height="8" as="geometry" />
        </mxCell>
        <mxCell id="E-5v2TKGbrNrk4kBcRAY-100" style="line;strokeWidth=1;fillColor=none;align=left;verticalAlign=middle;spacingTop=-1;spacingLeft=3;spacingRight=3;rotatable=0;labelPosition=right;points=[];portConstraint=eastwest;strokeColor=none;dashed=1;" vertex="1" parent="E-5v2TKGbrNrk4kBcRAY-97">
          <mxGeometry y="48" width="160" height="12" as="geometry" />
        </mxCell>
        <mxCell id="E-5v2TKGbrNrk4kBcRAY-101" value="" style="html=1;verticalAlign=bottom;endArrow=block;curved=0;rounded=0;entryX=0.5;entryY=1;entryDx=0;entryDy=0;exitX=0.5;exitY=0;exitDx=0;exitDy=0;" edge="1" parent="1" source="E-5v2TKGbrNrk4kBcRAY-102" target="E-5v2TKGbrNrk4kBcRAY-97">
          <mxGeometry width="80" relative="1" as="geometry">
            <mxPoint x="904" y="890" as="sourcePoint" />
            <mxPoint x="1020" y="860" as="targetPoint" />
          </mxGeometry>
        </mxCell>
        <mxCell id="E-5v2TKGbrNrk4kBcRAY-156" value="Extends" style="edgeLabel;html=1;align=center;verticalAlign=middle;resizable=0;points=[];" vertex="1" connectable="0" parent="E-5v2TKGbrNrk4kBcRAY-101">
          <mxGeometry x="-0.0781" y="-1" relative="1" as="geometry">
            <mxPoint as="offset" />
          </mxGeometry>
        </mxCell>
        <mxCell id="E-5v2TKGbrNrk4kBcRAY-102" value="UtenteRegistrato" style="swimlane;fontStyle=1;align=center;verticalAlign=top;childLayout=stackLayout;horizontal=1;startSize=26;horizontalStack=0;resizeParent=1;resizeParentMax=0;resizeLast=0;collapsible=1;marginBottom=0;whiteSpace=wrap;html=1;fillColor=#7EA6E0;swimlaneFillColor=#E6E6E6;fontColor=#FFFFFF;strokeColor=none;" vertex="1" parent="1">
          <mxGeometry x="960" y="760" width="176" height="120" as="geometry" />
        </mxCell>
        <mxCell id="E-5v2TKGbrNrk4kBcRAY-103" value="- username: String&lt;div&gt;- password: String&lt;/div&gt;&lt;div&gt;- cellulare: String&lt;/div&gt;&lt;div&gt;- prioritari: boolean&lt;/div&gt;" style="text;strokeColor=none;fillColor=none;align=left;verticalAlign=top;spacingLeft=4;spacingRight=4;overflow=hidden;rotatable=0;points=[[0,0.5],[1,0.5]];portConstraint=eastwest;whiteSpace=wrap;html=1;" vertex="1" parent="E-5v2TKGbrNrk4kBcRAY-102">
          <mxGeometry y="26" width="176" height="74" as="geometry" />
        </mxCell>
        <mxCell id="E-5v2TKGbrNrk4kBcRAY-104" style="line;strokeWidth=1;fillColor=none;align=left;verticalAlign=middle;spacingTop=-1;spacingLeft=3;spacingRight=3;rotatable=0;labelPosition=right;points=[];portConstraint=eastwest;strokeColor=#7EA6E0;dashed=1;" vertex="1" parent="E-5v2TKGbrNrk4kBcRAY-102">
          <mxGeometry y="100" width="176" height="8" as="geometry" />
        </mxCell>
        <mxCell id="E-5v2TKGbrNrk4kBcRAY-105" value="" style="line;strokeWidth=1;fillColor=none;align=left;verticalAlign=middle;spacingTop=-1;spacingLeft=3;spacingRight=3;rotatable=0;labelPosition=right;points=[];portConstraint=eastwest;strokeColor=none;dashed=1;" vertex="1" parent="E-5v2TKGbrNrk4kBcRAY-102">
          <mxGeometry y="108" width="176" height="12" as="geometry" />
        </mxCell>
        <mxCell id="E-5v2TKGbrNrk4kBcRAY-106" value="" style="endArrow=none;html=1;edgeStyle=orthogonalEdgeStyle;rounded=0;exitX=1;exitY=0.5;exitDx=0;exitDy=0;entryX=0;entryY=0.5;entryDx=0;entryDy=0;" edge="1" parent="1" source="E-5v2TKGbrNrk4kBcRAY-103" target="E-5v2TKGbrNrk4kBcRAY-110">
          <mxGeometry relative="1" as="geometry">
            <mxPoint x="1030" y="900" as="sourcePoint" />
            <mxPoint x="1090" y="893" as="targetPoint" />
          </mxGeometry>
        </mxCell>
        <mxCell id="E-5v2TKGbrNrk4kBcRAY-107" value="1" style="edgeLabel;resizable=0;html=1;align=left;verticalAlign=bottom;" connectable="0" vertex="1" parent="E-5v2TKGbrNrk4kBcRAY-106">
          <mxGeometry x="-1" relative="1" as="geometry" />
        </mxCell>
        <mxCell id="E-5v2TKGbrNrk4kBcRAY-108" value="1" style="edgeLabel;resizable=0;html=1;align=right;verticalAlign=bottom;" connectable="0" vertex="1" parent="E-5v2TKGbrNrk4kBcRAY-106">
          <mxGeometry x="1" relative="1" as="geometry">
            <mxPoint x="-10" y="-2" as="offset" />
          </mxGeometry>
        </mxCell>
        <mxCell id="E-5v2TKGbrNrk4kBcRAY-109" value="Posizione" style="swimlane;fontStyle=1;align=center;verticalAlign=top;childLayout=stackLayout;horizontal=1;startSize=26;horizontalStack=0;resizeParent=1;resizeParentMax=0;resizeLast=0;collapsible=1;marginBottom=0;whiteSpace=wrap;html=1;fillColor=#7EA6E0;swimlaneFillColor=#E6E6E6;fontColor=#FFFFFF;strokeColor=none;" vertex="1" parent="1">
          <mxGeometry x="1220" y="774" width="160" height="100" as="geometry" />
        </mxCell>
        <mxCell id="E-5v2TKGbrNrk4kBcRAY-110" value="- latitudine: float&lt;div&gt;- longitudine: float&lt;/div&gt;" style="text;strokeColor=none;fillColor=none;align=left;verticalAlign=top;spacingLeft=4;spacingRight=4;overflow=hidden;rotatable=0;points=[[0,0.5],[1,0.5]];portConstraint=eastwest;whiteSpace=wrap;html=1;" vertex="1" parent="E-5v2TKGbrNrk4kBcRAY-109">
          <mxGeometry y="26" width="160" height="44" as="geometry" />
        </mxCell>
        <mxCell id="E-5v2TKGbrNrk4kBcRAY-111" value="" style="line;strokeWidth=1;fillColor=none;align=left;verticalAlign=middle;spacingTop=-1;spacingLeft=3;spacingRight=3;rotatable=0;labelPosition=right;points=[];portConstraint=eastwest;strokeColor=#7EA6E0;dashed=1;" vertex="1" parent="E-5v2TKGbrNrk4kBcRAY-109">
          <mxGeometry y="70" width="160" height="10" as="geometry" />
        </mxCell>
        <mxCell id="E-5v2TKGbrNrk4kBcRAY-112" style="line;strokeWidth=1;fillColor=none;align=left;verticalAlign=middle;spacingTop=-1;spacingLeft=3;spacingRight=3;rotatable=0;labelPosition=right;points=[];portConstraint=eastwest;strokeColor=none;dashed=1;" vertex="1" parent="E-5v2TKGbrNrk4kBcRAY-109">
          <mxGeometry y="80" width="160" height="20" as="geometry" />
        </mxCell>
        <mxCell id="E-5v2TKGbrNrk4kBcRAY-113" value="" style="endArrow=open;endSize=12;html=1;rounded=0;exitX=0.5;exitY=1;exitDx=0;exitDy=0;entryX=0.5;entryY=0;entryDx=0;entryDy=0;dashed=1;" edge="1" parent="1" source="E-5v2TKGbrNrk4kBcRAY-102" target="E-5v2TKGbrNrk4kBcRAY-114">
          <mxGeometry width="160" relative="1" as="geometry">
            <mxPoint x="664" y="990" as="sourcePoint" />
            <mxPoint x="824" y="990" as="targetPoint" />
          </mxGeometry>
        </mxCell>
        <mxCell id="E-5v2TKGbrNrk4kBcRAY-155" value="&amp;lt;&amp;lt;uses&amp;gt;&amp;gt;" style="edgeLabel;html=1;align=center;verticalAlign=middle;resizable=0;points=[];" vertex="1" connectable="0" parent="E-5v2TKGbrNrk4kBcRAY-113">
          <mxGeometry x="-0.2498" relative="1" as="geometry">
            <mxPoint as="offset" />
          </mxGeometry>
        </mxCell>
        <mxCell id="E-5v2TKGbrNrk4kBcRAY-114" value="&lt;i&gt;Statistica&lt;/i&gt;" style="swimlane;fontStyle=1;align=center;verticalAlign=top;childLayout=stackLayout;horizontal=1;startSize=26;horizontalStack=0;resizeParent=1;resizeParentMax=0;resizeLast=0;collapsible=1;marginBottom=0;whiteSpace=wrap;html=1;fillColor=#7EA6E0;swimlaneFillColor=#E6E6E6;fontColor=#FFFFFF;strokeColor=none;" vertex="1" parent="1">
          <mxGeometry x="904" y="950" width="288" height="140" as="geometry" />
        </mxCell>
        <mxCell id="E-5v2TKGbrNrk4kBcRAY-115" value="- nomeStatistica: String&lt;div&gt;- dataInizio: Date&lt;/div&gt;&lt;div&gt;- dataFine: Date&lt;/div&gt;&lt;div&gt;- fiume: String&lt;/div&gt;&lt;div&gt;- sensori: String[]&lt;/div&gt;" style="text;strokeColor=none;fillColor=none;align=left;verticalAlign=top;spacingLeft=4;spacingRight=4;overflow=hidden;rotatable=0;points=[[0,0.5],[1,0.5]];portConstraint=eastwest;whiteSpace=wrap;html=1;" vertex="1" parent="E-5v2TKGbrNrk4kBcRAY-114">
          <mxGeometry y="26" width="288" height="84" as="geometry" />
        </mxCell>
        <mxCell id="E-5v2TKGbrNrk4kBcRAY-116" value="" style="line;strokeWidth=1;fillColor=none;align=left;verticalAlign=middle;spacingTop=-1;spacingLeft=3;spacingRight=3;rotatable=0;labelPosition=right;points=[];portConstraint=eastwest;strokeColor=#7EA6E0;dashed=1;" vertex="1" parent="E-5v2TKGbrNrk4kBcRAY-114">
          <mxGeometry y="110" width="288" height="8" as="geometry" />
        </mxCell>
        <mxCell id="E-5v2TKGbrNrk4kBcRAY-117" value="&lt;div&gt;&lt;i style=&quot;background-color: transparent; color: light-dark(rgb(0, 0, 0), rgb(255, 255, 255));&quot;&gt;+ calcola()&lt;/i&gt;&lt;/div&gt;&lt;div&gt;&lt;i&gt;&lt;br&gt;&lt;/i&gt;&lt;/div&gt;" style="text;strokeColor=none;fillColor=none;align=left;verticalAlign=top;spacingLeft=4;spacingRight=4;overflow=hidden;rotatable=0;points=[[0,0.5],[1,0.5]];portConstraint=eastwest;whiteSpace=wrap;html=1;" vertex="1" parent="E-5v2TKGbrNrk4kBcRAY-114">
          <mxGeometry y="118" width="288" height="22" as="geometry" />
        </mxCell>
        <mxCell id="E-5v2TKGbrNrk4kBcRAY-118" value="Storico" style="swimlane;fontStyle=1;align=center;verticalAlign=top;childLayout=stackLayout;horizontal=1;startSize=26;horizontalStack=0;resizeParent=1;resizeParentMax=0;resizeLast=0;collapsible=1;marginBottom=0;whiteSpace=wrap;html=1;fillColor=#7EA6E0;swimlaneFillColor=#E6E6E6;fontColor=#FFFFFF;strokeColor=none;" vertex="1" parent="1">
          <mxGeometry x="440" y="780" width="260" height="34" as="geometry" />
        </mxCell>
        <mxCell id="E-5v2TKGbrNrk4kBcRAY-120" value="" style="line;strokeWidth=1;fillColor=none;align=left;verticalAlign=middle;spacingTop=-1;spacingLeft=3;spacingRight=3;rotatable=0;labelPosition=right;points=[];portConstraint=eastwest;strokeColor=#7EA6E0;dashed=1;" vertex="1" parent="E-5v2TKGbrNrk4kBcRAY-118">
          <mxGeometry y="26" width="260" height="8" as="geometry" />
        </mxCell>
        <mxCell id="E-5v2TKGbrNrk4kBcRAY-122" value="Rilevazione" style="swimlane;fontStyle=1;align=center;verticalAlign=top;childLayout=stackLayout;horizontal=1;startSize=26;horizontalStack=0;resizeParent=1;resizeParentMax=0;resizeLast=0;collapsible=1;marginBottom=0;whiteSpace=wrap;html=1;fillColor=#7EA6E0;swimlaneFillColor=#E6E6E6;fontColor=#FFFFFF;strokeColor=none;" vertex="1" parent="1">
          <mxGeometry x="130" y="820" width="160" height="110" as="geometry" />
        </mxCell>
        <mxCell id="E-5v2TKGbrNrk4kBcRAY-123" value="- valore: Float&lt;div&gt;- dataOra: DateTime&lt;/div&gt;&lt;div&gt;- idSensore: String&lt;/div&gt;" style="text;strokeColor=none;fillColor=none;align=left;verticalAlign=top;spacingLeft=4;spacingRight=4;overflow=hidden;rotatable=0;points=[[0,0.5],[1,0.5]];portConstraint=eastwest;whiteSpace=wrap;html=1;" vertex="1" parent="E-5v2TKGbrNrk4kBcRAY-122">
          <mxGeometry y="26" width="160" height="54" as="geometry" />
        </mxCell>
        <mxCell id="E-5v2TKGbrNrk4kBcRAY-124" style="line;strokeWidth=1;fillColor=none;align=left;verticalAlign=middle;spacingTop=-1;spacingLeft=3;spacingRight=3;rotatable=0;labelPosition=right;points=[];portConstraint=eastwest;strokeColor=#7EA6E0;dashed=1;" vertex="1" parent="E-5v2TKGbrNrk4kBcRAY-122">
          <mxGeometry y="80" width="160" height="8" as="geometry" />
        </mxCell>
        <mxCell id="E-5v2TKGbrNrk4kBcRAY-125" value="" style="line;strokeWidth=1;fillColor=none;align=left;verticalAlign=middle;spacingTop=-1;spacingLeft=3;spacingRight=3;rotatable=0;labelPosition=right;points=[];portConstraint=eastwest;strokeColor=none;dashed=1;" vertex="1" parent="E-5v2TKGbrNrk4kBcRAY-122">
          <mxGeometry y="88" width="160" height="22" as="geometry" />
        </mxCell>
        <mxCell id="E-5v2TKGbrNrk4kBcRAY-126" value="" style="endArrow=diamondThin;endFill=1;endSize=24;html=1;rounded=0;exitX=0.5;exitY=0;exitDx=0;exitDy=0;entryX=0;entryY=0.25;entryDx=0;entryDy=0;" edge="1" parent="1" source="E-5v2TKGbrNrk4kBcRAY-122" target="E-5v2TKGbrNrk4kBcRAY-118">
          <mxGeometry width="160" relative="1" as="geometry">
            <mxPoint x="79.22" y="650" as="sourcePoint" />
            <mxPoint x="440" y="796" as="targetPoint" />
            <Array as="points">
              <mxPoint x="210" y="790" />
              <mxPoint x="350" y="790" />
            </Array>
          </mxGeometry>
        </mxCell>
        <mxCell id="E-5v2TKGbrNrk4kBcRAY-127" style="edgeStyle=orthogonalEdgeStyle;rounded=0;orthogonalLoop=1;jettySize=auto;html=1;endArrow=none;startFill=0;" edge="1" parent="1" source="E-5v2TKGbrNrk4kBcRAY-128">
          <mxGeometry relative="1" as="geometry">
            <mxPoint x="1040" y="1220" as="targetPoint" />
            <Array as="points">
              <mxPoint x="925" y="1230" />
              <mxPoint x="1040" y="1230" />
            </Array>
          </mxGeometry>
        </mxCell>
        <mxCell id="E-5v2TKGbrNrk4kBcRAY-128" value="LivelloMedio" style="swimlane;fontStyle=1;align=center;verticalAlign=top;childLayout=stackLayout;horizontal=1;startSize=26;horizontalStack=0;resizeParent=1;resizeParentMax=0;resizeLast=0;collapsible=1;marginBottom=0;whiteSpace=wrap;html=1;fillColor=#7EA6E0;swimlaneFillColor=#E6E6E6;fontColor=#FFFFFF;strokeColor=none;" vertex="1" parent="1">
          <mxGeometry x="845" y="1290" width="160" height="48" as="geometry" />
        </mxCell>
        <mxCell id="E-5v2TKGbrNrk4kBcRAY-129" value="" style="line;strokeWidth=1;fillColor=none;align=left;verticalAlign=middle;spacingTop=-1;spacingLeft=3;spacingRight=3;rotatable=0;labelPosition=right;points=[];portConstraint=eastwest;strokeColor=none;dashed=1;" vertex="1" parent="E-5v2TKGbrNrk4kBcRAY-128">
          <mxGeometry y="26" width="160" height="14" as="geometry" />
        </mxCell>
        <mxCell id="E-5v2TKGbrNrk4kBcRAY-130" style="line;strokeWidth=1;fillColor=none;align=left;verticalAlign=middle;spacingTop=-1;spacingLeft=3;spacingRight=3;rotatable=0;labelPosition=right;points=[];portConstraint=eastwest;strokeColor=#7EA6E0;dashed=1;" vertex="1" parent="E-5v2TKGbrNrk4kBcRAY-128">
          <mxGeometry y="40" width="160" height="8" as="geometry" />
        </mxCell>
        <mxCell id="E-5v2TKGbrNrk4kBcRAY-132" style="edgeStyle=orthogonalEdgeStyle;rounded=0;orthogonalLoop=1;jettySize=auto;html=1;endArrow=none;startFill=0;" edge="1" parent="1" source="E-5v2TKGbrNrk4kBcRAY-133">
          <mxGeometry relative="1" as="geometry">
            <mxPoint x="1040" y="1230" as="targetPoint" />
            <Array as="points">
              <mxPoint x="1171" y="1230" />
            </Array>
          </mxGeometry>
        </mxCell>
        <mxCell id="E-5v2TKGbrNrk4kBcRAY-133" value="LivelliMaxMin" style="swimlane;fontStyle=1;align=center;verticalAlign=top;childLayout=stackLayout;horizontal=1;startSize=26;horizontalStack=0;resizeParent=1;resizeParentMax=0;resizeLast=0;collapsible=1;marginBottom=0;whiteSpace=wrap;html=1;fillColor=#7EA6E0;swimlaneFillColor=#E6E6E6;fontColor=#FFFFFF;strokeColor=none;" vertex="1" parent="1">
          <mxGeometry x="1091" y="1290" width="160" height="48" as="geometry" />
        </mxCell>
        <mxCell id="E-5v2TKGbrNrk4kBcRAY-134" value="" style="line;strokeWidth=1;fillColor=none;align=left;verticalAlign=middle;spacingTop=-1;spacingLeft=3;spacingRight=3;rotatable=0;labelPosition=right;points=[];portConstraint=eastwest;strokeColor=none;dashed=1;" vertex="1" parent="E-5v2TKGbrNrk4kBcRAY-133">
          <mxGeometry y="26" width="160" height="14" as="geometry" />
        </mxCell>
        <mxCell id="E-5v2TKGbrNrk4kBcRAY-135" style="line;strokeWidth=1;fillColor=none;align=left;verticalAlign=middle;spacingTop=-1;spacingLeft=3;spacingRight=3;rotatable=0;labelPosition=right;points=[];portConstraint=eastwest;strokeColor=#7EA6E0;dashed=1;" vertex="1" parent="E-5v2TKGbrNrk4kBcRAY-133">
          <mxGeometry y="40" width="160" height="8" as="geometry" />
        </mxCell>
        <mxCell id="E-5v2TKGbrNrk4kBcRAY-137" style="edgeStyle=orthogonalEdgeStyle;rounded=0;orthogonalLoop=1;jettySize=auto;html=1;endArrow=open;endFill=0;dashed=1;" edge="1" parent="1" source="E-5v2TKGbrNrk4kBcRAY-115">
          <mxGeometry relative="1" as="geometry">
            <Array as="points">
              <mxPoint x="802" y="1028" />
              <mxPoint x="802" y="800" />
              <mxPoint x="700" y="800" />
            </Array>
            <mxPoint x="700" y="800" as="targetPoint" />
          </mxGeometry>
        </mxCell>
        <mxCell id="E-5v2TKGbrNrk4kBcRAY-139" value="0..*" style="text;strokeColor=none;align=center;fillColor=none;html=1;verticalAlign=middle;whiteSpace=wrap;rounded=0;" vertex="1" parent="1">
          <mxGeometry x="160" y="790" width="60" height="30" as="geometry" />
        </mxCell>
        <mxCell id="E-5v2TKGbrNrk4kBcRAY-142" value="" style="rounded=0;orthogonalLoop=1;jettySize=auto;html=1;endArrow=open;startFill=0;endFill=0;" edge="1" parent="1" source="E-5v2TKGbrNrk4kBcRAY-103" target="E-5v2TKGbrNrk4kBcRAY-110">
          <mxGeometry relative="1" as="geometry" />
        </mxCell>
        <mxCell id="E-5v2TKGbrNrk4kBcRAY-144" value="Extends" style="endArrow=block;endSize=16;endFill=0;html=1;rounded=0;entryX=0.475;entryY=1.005;entryDx=0;entryDy=0;entryPerimeter=0;" edge="1" parent="1" target="E-5v2TKGbrNrk4kBcRAY-117">
          <mxGeometry width="160" relative="1" as="geometry">
            <mxPoint x="1040" y="1220" as="sourcePoint" />
            <mxPoint x="1040" y="1260" as="targetPoint" />
          </mxGeometry>
        </mxCell>
        <mxCell id="E-5v2TKGbrNrk4kBcRAY-154" value="1" style="text;strokeColor=none;align=center;fillColor=none;html=1;verticalAlign=middle;whiteSpace=wrap;rounded=0;" vertex="1" parent="1">
          <mxGeometry x="390" y="750" width="60" height="30" as="geometry" />
        </mxCell>
      </root>
    </mxGraphModel>
  </diagram>
</mxfile>
